<svg width="381.6919660770635" height="44.046848741823126" viewBox="0 0 381.6919660770635 44.046848741823126" class="css-1j8o68f"><defs id="SvgjsDefs5962"></defs><g id="SvgjsG5963" featurekey="nameLeftFeature-0" transform="matrix(1.3405306718079384,0,0,1.3405306718079384,-1.1520517852564205,4.368008171228611)" fill="#649dad"><path d="M7.9297 20.19531 c-4.0723 0 -7.0703 -2.8125 -7.0703 -7.2168 c0 -4.4629 3.0664 -7.2852 7.2168 -7.2852 c2.7246 0 4.9805 1.2012 6.2109 3.3203 l-2.5684 1.3672 c-0.74219 -1.4453 -2.0703 -2.1387 -3.6426 -2.1387 c-2.4414 0 -4.2773 1.6797 -4.2773 4.668 c0 2.8809 1.7188 4.7363 4.3848 4.7363 c1.8066 0 3.4668 -0.89844 3.8672 -2.959 l-3.8574 0 l0 -2.3535 l6.6309 0 l0 7.666 l-2.3047 0 l0 -1.9531 c-0.9082 1.3379 -2.4316 2.1484 -4.5898 2.1484 z M27.236284375 20 l-3.6719 -6.2109 l-0.84961 0 l0 6.2109 l-2.9297 0 l0 -14.111 l5.1172 0 c3.1934 0 4.541 1.8848 4.541 4.2188 c0 1.8945 -1.0742 3.125 -2.9883 3.5352 l4.248 6.3574 l-3.4668 0 z M22.714884375 8.32 l0 3.3691 l1.7285 0 c1.5625 0 2.1973 -0.66406 2.1973 -1.6797 c0 -1.0059 -0.63477 -1.6895 -2.1973 -1.6895 l-1.7285 0 z M44.219218749999996 20 l-1.0254 -2.9102 l-5.9277 0 l-1.0254 2.9102 l-2.998 0 l5.1953 -14.111 l3.584 0 l5.1953 14.111 l-2.998 0 z M38.12501875 14.6387 l4.209 0 l-2.0996 -5.9863 z M57.12889375 5.888999999999999 c2.7637 0 4.4824 2.0508 4.4824 4.5605 c0 2.5684 -1.7188 4.4922 -4.4824 4.4922 l-2.9395 0 l0 5.0586 l-2.9297 0 l0 -14.111 l5.8691 0 z M56.64059375 12.4902 c1.4648 0 2.1484 -0.81055 2.1484 -2.0801 c0 -1.2207 -0.68359 -2.0703 -2.1484 -2.0703 l-2.4512 0 l0 4.1504 l2.4512 0 z M74.892921875 5.888999999999999 l2.9297 0 l0 14.111 l-2.9297 0 l0 -5.8008 l-5.9668 0 l0 5.8008 l-2.9297 0 l0 -14.111 l2.9297 0 l0 5.7617 l5.9668 0 l0 -5.7617 z M97.363265625 20.58594 l-2.4414 0.92773 l-1.8066 -2.0313 c-0.99609 0.45898 -2.1484 0.71289 -3.3984 0.71289 c-4.1992 0 -7.3047 -2.832 -7.3047 -7.2559 c0 -4.4336 3.1055 -7.2461 7.3047 -7.2461 s7.3047 2.8125 7.3047 7.2461 c0 2.0996 -0.69336 3.8379 -1.875 5.0879 z M85.332065625 12.939499999999999 c0 3.0078 1.9043 4.707 4.3848 4.707 s4.3848 -1.6992 4.3848 -4.707 c0 -2.8516 -1.9043 -4.5508 -4.3848 -4.5508 s-4.3848 1.6992 -4.3848 4.5508 z M104.7168375 17.4121 l4.4238 0 l0 2.5879 l-7.3535 0 l0 -14.111 l2.9297 0 l0 11.523 z"></path></g><g id="SvgjsG5964" featurekey="inlineSymbolFeature-0" transform="matrix(13.027757525926255,0,0,13.027757525926255,152.80601831588478,-10.55248362706086)" fill="#649dad"><g xmlns="http://www.w3.org/2000/svg"><g><polygon fill="#649dad" points="2.107,4.191 2.789,4.191 4.066,3.203 4.066,1.564 3.217,0.81 1.725,2.129 1.725,2.705     2.059,3.001 2.434,2.668 2.25,2.507 2.25,2.282 3.236,1.411 3.576,1.712 3.576,3.027   "></polygon></g><g><polygon fill="#649dad" points="2.893,0.81 2.211,0.81 0.936,1.798 0.936,3.437 1.785,4.191 3.275,2.87 3.275,2.295 2.941,1.999     2.568,2.332 2.75,2.493 2.75,2.718 1.764,3.589 1.426,3.29 1.426,1.972   "></polygon></g></g></g><g id="SvgjsG5965" featurekey="nameRightFeature-0" transform="matrix(1.340529649064981,0,0,1.340529649064981,216.06313553591593,4.368029335116202)" fill="#649dad"><path d="M18.389140625 20 l-1.0254 -2.9102 l-5.9277 0 l-1.0254 2.9102 l-2.998 0 l5.1953 -14.111 l3.584 0 l5.1953 14.111 l-2.998 0 z M12.294940624999999 14.6387 l4.209 0 l-2.0996 -5.9863 z M25.429715625 20 l0 -14.111 l5.1074 0 c4.502 0 6.7285 2.832 6.7285 7.0508 c0 4.2285 -2.2266 7.0605 -6.7285 7.0605 l-5.1074 0 z M28.359415625 17.4121 l2.0313 0 c2.5977 0 3.7891 -1.6211 3.7891 -4.4727 s-1.1914 -4.4727 -3.7891 -4.4727 l-2.0313 0 l0 8.9453 z M51.377421874999996 20 l-1.0254 -2.9102 l-5.9277 0 l-1.0254 2.9102 l-2.998 0 l5.1953 -14.111 l3.584 0 l5.1953 14.111 l-2.998 0 z M45.283221875 14.6387 l4.209 0 l-2.0996 -5.9863 z M64.287096875 5.888999999999999 c2.7637 0 4.4824 2.0508 4.4824 4.5605 c0 2.5684 -1.7188 4.4922 -4.4824 4.4922 l-2.9395 0 l0 5.0586 l-2.9297 0 l0 -14.111 l5.8691 0 z M63.798796875 12.4902 c1.4648 0 2.1484 -0.81055 2.1484 -2.0801 c0 -1.2207 -0.68359 -2.0703 -2.1484 -2.0703 l-2.4512 0 l0 4.1504 l2.4512 0 z M81.338125 5.888999999999999 l0 2.5781 l-3.3496 0 l0 11.533 l-2.9004 0 l0 -11.533 l-3.3691 0 l0 -2.5781 l9.6191 0 z M93.66234375 8.467 l-5.2344 0 l0 3.2031 l4.6387 0 l0 2.5488 l-4.6387 0 l0 3.1934 l5.2344 0 l0 2.5879 l-8.1836 0 l0 -14.111 l8.1836 0 l0 2.5781 z M106.05464375 20 l-3.6719 -6.2109 l-0.84961 0 l0 6.2109 l-2.9297 0 l0 -14.111 l5.1172 0 c3.1934 0 4.541 1.8848 4.541 4.2188 c0 1.8945 -1.0742 3.125 -2.9883 3.5352 l4.248 6.3574 l-3.4668 0 z M101.53324375 8.32 l0 3.3691 l1.7285 0 c1.5625 0 2.1973 -0.66406 2.1973 -1.6797 c0 -1.0059 -0.63477 -1.6895 -2.1973 -1.6895 l-1.7285 0 z M118.281278125 20.19531 c-3.0273 0 -5.3906 -1.4551 -5.8203 -4.1016 l3.0273 -0.69336 c0.19531 1.582 1.3574 2.4023 2.9102 2.4023 c1.1914 0 2.1387 -0.52734 2.1289 -1.7188 c-0.0097656 -1.3281 -1.5723 -1.748 -3.291 -2.2754 c-2.0703 -0.64453 -4.2871 -1.4063 -4.2871 -4.0039 c0 -2.627 2.1484 -4.1113 4.9805 -4.1113 c2.4805 0 4.9805 1.0059 5.5469 3.7109 l-2.832 0.70313 c-0.26367 -1.4063 -1.2109 -2.0215 -2.5391 -2.0215 c-1.1816 0 -2.1875 0.48828 -2.1875 1.6504 c0 1.084 1.3867 1.4453 2.9883 1.9238 c2.1289 0.64453 4.6484 1.4648 4.6484 4.2773 c0 2.998 -2.5098 4.2578 -5.2734 4.2578 z"></path></g></svg>